<svg xmlns="http://www.w3.org/2000/svg" version="1.1" viewBox="-5.0 -10.0 110.0 135.0">
 <path d="m39.18 52.23h6.9102c0.55078 0 1-0.44922 1-1v-5.9414c0-0.55078-0.44922-1-1-1h-6.9102c-0.55078 0-1 0.44922-1 1v5.9414c0 0.55078 0.44922 1 1 1zm1-5.9414h4.9102v3.9414h-4.9102z"/>
 <path d="m53.898 52.23h6.9102c0.55078 0 1-0.44922 1-1v-5.9414c0-0.55078-0.44922-1-1-1h-6.9102c-0.55078 0-1 0.44922-1 1v5.9414c0 0.55078 0.44922 1 1 1zm1-5.9414h4.9102v3.9414h-4.9102z"/>
 <path d="m60.852 57.801v4.8281c0 0.55078 0.44922 1 1 1h12.559c0.55078 0 1-0.44922 1-1v-4.8281c0-0.55078-0.44922-1-1-1h-12.559c-0.55078 0-1 0.44922-1 1zm2 1h10.559v2.8281h-10.559z"/>
 <path d="m25.578 63.629h12.559c0.55078 0 1-0.44922 1-1v-4.8281c0-0.55078-0.44922-1-1-1h-12.559c-0.55078 0-1 0.44922-1 1v4.8281c0 0.55078 0.44922 1 1 1zm1-4.8281h10.559v2.8281h-10.559z"/>
 <path d="m96.5 88.191h-2.4102v-6.3086c0-0.55078-0.44922-1-1-1h-2.0312v-13.672c0-0.26953-0.10938-0.51953-0.28906-0.71094-0.17969-0.19141-0.44141-0.28906-0.71094-0.28906h-9.0703v-15.641c0-0.5-0.37109-0.92969-0.87109-0.98828l-12.23-1.6094v-9.8281c0.44922-0.23047 0.87109-0.46094 1.2617-0.71094 0.37109-0.23828 0.53906-0.69141 0.42969-1.1094l-3.3281-11.941 18.352-6.9492c0.39063-0.14844 0.64844-0.51953 0.64844-0.94141 0-0.42188-0.26172-0.78906-0.64844-0.94141l-34.25-12.992c-0.23047-0.089844-0.48047-0.089844-0.71094 0l-34.242 12.98c-0.39063 0.14844-0.64844 0.51953-0.64844 0.94141s0.26172 0.78906 0.64844 0.94141l6.0781 2.3008c-3.9219 1.1992-6.7188 4.8711-6.7188 9.0703v5.1914c-1.9609 0.96875-2.9805 4.7695-2.9805 8.5391v1.6914c0 2.1992 1.7891 3.9805 3.9805 3.9805 1.0703 0 2.0703-0.41016 2.8203-1.1602s1.1602-1.75 1.1602-2.8203v-1.6914c0-3.7695-1.0195-7.5703-2.9805-8.5391v-5.1914c0-3.6992 2.7617-6.8906 6.4219-7.4219l1.9297-0.28125 8.6484 3.2812-3.3281 11.941c-0.12109 0.42188 0.050781 0.87891 0.42969 1.1094 0.39062 0.25 0.82031 0.48047 1.2695 0.71094v9.8281l-12.23 1.6094c-0.5 0.070313-0.87109 0.48828-0.87109 0.98828v15.641h-9.0703c-0.26953 0-0.51953 0.10156-0.71094 0.28906-0.19141 0.19141-0.28906 0.44141-0.28906 0.71094v13.672h-2.0312c-0.55078 0-1 0.44922-1 1v6.3086h-2.4102c-0.55078 0-1 0.44922-1 1v7.3086c0 0.55078 0.44922 1 1 1h93c0.55078 0 1-0.44922 1-1v-7.3086c0-0.55078-0.44922-1-1-1zm-78.77-45.672v1.6914c0 0.53125-0.19922 1.0312-0.57812 1.3984-0.37891 0.37109-0.87109 0.57812-1.3984 0.57812-1.0898 0-1.9805-0.89062-1.9805-1.9805v-1.6914c0-4.3984 1.4102-6.7812 1.9805-6.7812 0.57031 0 1.9805 2.3789 1.9805 6.7812zm11.461-22.02 20.961-3.0312c0.55078-0.078125 0.92969-0.58984 0.85156-1.1289-0.078125-0.55078-0.58984-0.92969-1.1289-0.85156l-24.531 3.5508-6.7617-2.5586 31.43-11.91 31.43 11.91-31.43 11.91-20.809-7.8906zm6.4375 4.5781 14.012 5.3086c0.10938 0.039062 0.23047 0.058593 0.35156 0.058593 0.12109 0 0.23828-0.019531 0.35156-0.058593l14.02-5.3086 3.0703 11.031c-3.8203 2.1289-10.398 3.4414-17.449 3.4414s-13.609-1.3086-17.441-3.4414l3.0781-11.02zm-24.68 43.121h9.0703c0.26953 0 0.51953-0.10938 0.71094-0.28906 0.19141-0.17969 0.28906-0.44141 0.28906-0.71094v-15.762l12.23-1.6094c0.5-0.070313 0.87109-0.48828 0.87109-0.98828v-9.8086c4.1289 1.6016 9.7812 2.5195 15.879 2.5195 6.1016 0 11.762-0.92188 15.891-2.5195v9.8086c0 0.5 0.37109 0.92969 0.87109 0.98828l12.23 1.6094v15.762c0 0.26953 0.10937 0.51953 0.28906 0.71094s0.44141 0.28906 0.71094 0.28906h9.0703v12.672h-4.4883v-8.0586c0-0.55078-0.44922-1-1-1h-7.1484c-0.55078 0-1 0.44922-1 1v8.0586h-4.4883v-8.0586c0-0.55078-0.44922-1-1-1h-7.1484c-0.55078 0-1 0.44922-1 1v8.0586h-4.4883v-23.07c0-0.55078-0.44922-1-1-1h-12.559c-0.55078 0-1 0.44922-1 1v23.07h-4.4883v-8.0586c0-0.55078-0.44922-1-1-1h-7.1484c-0.55078 0-1 0.44922-1 1v8.0586h-4.4883v-8.0586c0-0.55078-0.44922-1-1-1h-7.1484c-0.55078 0-1 0.44922-1 1v8.0586h-4.4883v-12.672zm71.609 5.6211v7.0586h-5.1484v-7.0586zm-13.637 0v7.0586h-5.1484v-7.0586zm-24.203-12.191v-2.8281h10.559v2.8281zm10.562 2v17.238h-10.559v-17.238zm-19.062 10.191v7.0586h-5.1484v-7.0586zm-13.641 0v7.0586h-5.1484v-7.0586zm-14.668 9.0508h84.172v5.3086h-84.172zm87.59 12.629h-91v-5.3086h91z"/>
</svg>