<svg xmlns="http://www.w3.org/2000/svg" version="1.1" viewBox="-5.0 -10.0 110.0 135.0">
 <path d="m98.176 52.203c-0.86328-0.85938-2.0039-1.332-3.2188-1.332h-11.699v-17.531c5.3516-0.79297 5.1133-8.8516-0.65234-9.0195h-29.641v-6.7773c0.92969-0.32031 1.6445-1.1211 1.8125-2.1172h11c0.48438 0.625 1.2305 1.043 2.0586 1.0312h5.8711c1.4414 0 2.6133-1.1719 2.6133-2.6133v-2.3477c0-1.4414-1.1719-2.6133-2.6133-2.6133h-5.8711c-0.83594-0.011718-1.582 0.41406-2.0664 1.043h-11.125c-0.38281-1.043-1.375-1.8086-2.5508-1.8008h-4.125c-1.1797-0.007812-2.168 0.75781-2.5508 1.8008h-11.246c-0.48438-0.63672-1.2344-1.043-2.0547-1.043h-5.8711c-1.4414 0-2.6133 1.1719-2.6133 2.6133v2.3477c0 1.4414 1.1719 2.6133 2.6133 2.6133h5.8711c0.83203 0.015625 1.5781-0.40625 2.0586-1.0312h11.109c0.16016 0.97656 0.82812 1.7695 1.7031 2.0938v6.8008h-29.637c-5.8008 0.1875-5.9688 8.2383-0.65234 9.0234v17.531h-11.699c-5.7891 0.18359-5.9805 8.2344-0.65234 9.0234v29.273c0 1.4922 1.2148 2.7109 2.7109 2.7109h3.6797c1.4961 0 2.7109-1.2148 2.7109-2.7109v-29.199h14.934v19.559h-2.5938c-0.44141 0-0.80078 0.35938-0.80078 0.80078v2.8906c0 2.1836 1.7773 3.9609 3.9609 3.9609h34.258c0.015625 0 0.023438-0.007813 0.039063-0.007813 2.125 0.015625 3.9531-1.832 3.918-3.9531l0.003907-23.25h19.344v29.195c0 1.4922 1.2148 2.7109 2.7109 2.7109h3.6797c1.4922 0 2.7109-1.2148 2.7109-2.7109l-0.003906-29.234c3.5469-0.45703 5.2695-5.1367 2.5664-7.7305zm-28.535-1.332h-35.492-8.3477v-17.449h21.191v5.0508h-12.836c-1.7188 0-3.1172 1.3984-3.1172 3.1172v1.1055c0 1.7188 1.3984 3.1172 3.1172 3.1172h31.648c1.7188 0 3.1172-1.3984 3.1172-3.1172v-1.1055c0-1.7188-1.3984-3.1172-3.1172-3.1172h-12.836v-5.0508h21.191v17.449h-4.5195zm-3.8359-10.797c0.83594 0 1.5156 0.67969 1.5156 1.5156v1.1055c0 0.83594-0.67969 1.5156-1.5156 1.5156h-31.648c-0.83594 0-1.5156-0.67969-1.5156-1.5156v-1.1055c0-0.83594 0.67969-1.5156 1.5156-1.5156zm-14.438-1.6016h-2.7734v-5.0508h2.7734zm24.395-5.0508h5.8984v17.449h-5.8984zm-7.9219-22.938h5.8711c0.55859 0 1.0117 0.45312 1.0117 1.0117v2.3477c0 0.55859-0.45312 1.0117-1.0117 1.0117h-5.8711c-0.40234 0.011719-0.75391-0.25-0.91406-0.59766-0.0625-0.13672-0.097656-0.27344-0.097656-0.41406v-0.003906c0.011719-0.09375 0.007813-0.38672 0-0.73828v-1.3828c0.003906-0.12891 0.015625-0.24219 0.023437-0.33984 0.011719-0.074218 0.019532-0.15234 0.046876-0.22266 0.007812-0.015625 0.011718-0.042969 0.019531-0.054688 0.16016-0.35937 0.51953-0.62891 0.92188-0.61719zm-2.6133 3.3398h-10.402v-2.3008h10.402zm-19.98-2.3008v2.3008h-10.512v-0.89062c0.011719-0.4375 0.023437-0.92969 0-1.3789v-0.027344zm-13.125 3.332h-5.8711c-0.55859 0-1.0117-0.45312-1.0117-1.0117v-2.3477c0-0.55859 0.45312-1.0117 1.0117-1.0117h5.8711c0.39062-0.011719 0.75391 0.25391 0.91797 0.60938 0.058594 0.12109 0.09375 0.26953 0.09375 0.40625v2.3477c0 0.14062-0.035156 0.27734-0.097656 0.41406-0.16016 0.34375-0.50781 0.60547-0.91406 0.59375zm14.727-0.23047v-1.2422c0.015625-0.78906 0.035156-1.7656 0-2.4141v-0.10547c0.007813-0.62109 0.49219-1.1406 1.125-1.1367h4.125c0.63281-0.003906 1.1172 0.51172 1.125 1.1289v3.7695 0.35156c0.003906 0.66016-0.55859 1.1406-1.1953 1.125h-4.0586l-0.10938-0.007812c-0.58203-0.054688-1.0195-0.53516-1.0195-1.1172zm1.7461 3.0781c0.66016 0.003906 1.5352 0 2.25 0h0.52344v6.6172h-2.7734zm-31.242 8.2148h30.438 4.375 30.441c3.9023 0.10156 3.875 5.8086 0 5.9023h-0.11719c-0.011719 0-0.019531-0.007812-0.03125-0.007812h-7.5c-0.011719 0-0.019531 0.003906-0.03125 0.007812h-22.762-4.375-22.762c-0.011719 0-0.019532-0.007812-0.03125-0.007812h-7.4961c-0.011719 0-0.019531 0.003906-0.03125 0.007812h-0.11719c-3.9102-0.10547-3.8633-5.8086 0-5.9023zm0.94922 7.5039h5.8984v17.449h-5.8984zm-6.4531 55.746c0 0.61328-0.49609 1.1094-1.1094 1.1094h-3.6797c-0.61328 0-1.1094-0.49609-1.1094-1.1094v-29.195h5.8984zm0.82031-30.797c-0.007813 0-0.011719-0.003906-0.019531-0.003906h-7.5c-0.007813 0-0.011719 0.003906-0.019532 0.003906h-0.12891c-3.8906-0.10156-3.8906-5.8008 0-5.9023h25.168c-0.015625 0.015625-0.027344 0.03125-0.042969 0.042969-0.074219 0.074219-0.14453 0.14844-0.21484 0.22656-0.054687 0.0625-0.11328 0.12109-0.16797 0.18359-0.066407 0.078125-0.12891 0.16406-0.19141 0.24609-0.050781 0.066406-0.10156 0.13281-0.15234 0.20312-0.058594 0.085937-0.11328 0.17578-0.16797 0.26562-0.042969 0.070312-0.089844 0.14062-0.13281 0.21484-0.050781 0.09375-0.09375 0.1875-0.14062 0.28125-0.035156 0.074219-0.078125 0.14844-0.10938 0.22656-0.042968 0.097656-0.078125 0.19922-0.11328 0.30078-0.027344 0.078125-0.0625 0.15625-0.085937 0.23438-0.035157 0.10547-0.058594 0.21484-0.085938 0.32422-0.019531 0.078125-0.042969 0.15234-0.058594 0.23438-0.027344 0.125-0.042968 0.25391-0.058594 0.38281-0.007812 0.066406-0.023437 0.12891-0.03125 0.19531-0.019531 0.19531-0.03125 0.39453-0.03125 0.59766v1.7383c0 0.003906-8.8945 0.003906-15.715 0.003906zm16.285 27.211c-1.3008 0-2.3633-1.0586-2.3633-2.3633v-2.0898h32.652v0.53906c-0.007813 0.38281-0.011719 0.78906 0 1.1992v0.15625c-0.003907 0.10937 0.019531 0.21875 0.027343 0.32812 0.003907 0.054688 0.007813 0.10938 0.015625 0.16406 0.015625 0.13281 0.023438 0.26172 0.054688 0.39062 0.10156 0.63672 0.30078 1.2266 0.69141 1.668zm36.613-2.3633c0.019532 1.207-0.98828 2.3008-2.207 2.3516-0.14844 0.011719-0.29297 0-0.43359-0.019531-0.027343-0.003906-0.058593-0.003906-0.085937-0.007812-1.1133-0.20312-1.9805-1.3203-1.9883-2.457v-2.7539c0-0.44141-0.35937-0.80078-0.80078-0.80078h-30.066v-22.898c0-2.2969 1.8672-4.1641 4.1641-4.1641h32.887c-0.40234 0.55078-0.77344 1.2969-1.043 2.293-0.31641 1.1289-0.49609 2.5703-0.42578 4.4102v24.047zm27.336 7.0586h-3.6797c-0.61328 0-1.1094-0.49609-1.1094-1.1094v-29.195h5.8984v29.195c0 0.60938-0.5 1.1094-1.1094 1.1094zm2.0547-31.906h-0.125c-0.007812 0-0.011719-0.003906-0.019531-0.003906h-7.5c-0.007812 0-0.011719 0.003906-0.019531 0.003906h-20.121c0-0.14453 0.003906-0.27734 0.007813-0.41406 0.003906-0.11719 0.003906-0.24219 0.007812-0.35547 0.007812-0.14453 0.019531-0.27734 0.03125-0.41406 0.007812-0.10938 0.015625-0.22266 0.023438-0.32812 0.011718-0.13281 0.03125-0.25391 0.046874-0.38281 0.011719-0.097656 0.023438-0.19922 0.039063-0.29297 0.019531-0.12891 0.042969-0.24609 0.066406-0.36719 0.015625-0.078125 0.027344-0.16016 0.042969-0.23438 0.03125-0.14062 0.066406-0.26953 0.10156-0.39844 0.011719-0.046875 0.023438-0.097656 0.035157-0.14062 0.54297-1.8828 1.5039-2.5273 2.0859-2.5742h5.2969 7.5 12.5c3.8945 0.097656 3.8906 5.8047 0 5.9023zm-34.914 0.41016h-24.5c-1.0391-0.003906-1.0508-1.5938 0-1.6016h24.496c1.0391 0.003906 1.0547 1.5977 0.003907 1.6016zm0 7.8984h-24.5c-1.0391-0.003907-1.0508-1.5938 0-1.6016h24.496c1.0391 0.003906 1.0547 1.5938 0.003907 1.6016zm0 7.8945h-24.5c-1.0391-0.003907-1.0508-1.5938 0-1.6016h24.496c1.0391 0.007813 1.0547 1.5977 0.003907 1.6016z"/>
</svg>