<svg xmlns="http://www.w3.org/2000/svg" data-name="Layer 1" viewBox="0 0 512 640" x="0px" y="0px"><path d="M148.72168,248.99658a81.85474,81.85474,0,1,0,81.85474,81.855A81.85507,81.85507,0,0,0,148.72168,248.99658ZM120.87305,365.89941a3.5,3.5,0,0,1-7,0V295.80273a3.5,3.5,0,0,1,7,0Zm31.34863,13.36817a3.5,3.5,0,1,1-7,0v-96.832a3.5,3.5,0,0,1,7,0Zm31.34863-13.36817a3.5,3.5,0,0,1-7,0V295.80273a3.5,3.5,0,0,1,7,0Z"/><path d="M477.76953,190.77734H440.05566V177.80176a8.2334,8.2334,0,0,0-8.22363-8.22364H391.62109a8.2334,8.2334,0,0,0-8.22363,8.22364v12.97558h-13V177.80176a8.23257,8.23257,0,0,0-8.22266-8.22364H321.96387a8.2334,8.2334,0,0,0-8.22364,8.22364v12.97558H62.65186l2.5122-18.02148a4.27953,4.27953,0,0,1,4.21973-3.67285h19.71a4.27779,4.27779,0,0,1,4.21875,3.67285l.94336,6.7666a3.50033,3.50033,0,1,0,6.93359-.9668l-.94336-6.76562c-.03808-.27442-.09375-.543-.15136-.81055L294.05322,47.75293l.25342.4043a8.66508,8.66508,0,0,0,5.43555,3.87011,8.79745,8.79745,0,0,0,1.9707.22461,8.66508,8.66508,0,0,0,4.60938-1.332l24.63867-15.42676a8.71877,8.71877,0,0,0,2.76269-12.01464l-4.24511-6.78125a8.72893,8.72893,0,0,0-12.01563-2.7627L292.82324,29.36133A8.72844,8.72844,0,0,0,290.06055,41.376l.27783.44384L96.55444,164.93555a11.23889,11.23889,0,0,0-7.46069-2.85254h-19.71a11.3109,11.3109,0,0,0-11.15332,9.70605l-2.647,18.98828h-21.353A21.75566,21.75566,0,0,0,12.5,212.50879V477.66406a21.75483,21.75483,0,0,0,21.73047,21.73047H477.76953A21.75483,21.75483,0,0,0,499.5,477.66406V212.50879A21.75566,21.75566,0,0,0,477.76953,190.77734ZM296.53809,35.29492l24.63964-15.42676a1.68678,1.68678,0,0,1,.90723-.26269,1.75975,1.75975,0,0,1,.38965.04394,1.71063,1.71063,0,0,1,1.07031.7627L327.79,27.19336a1.71775,1.71775,0,0,1-.54395,2.36621L302.60742,44.98633a1.71605,1.71605,0,0,1-2.36719-.544l-4.24609-6.78027A1.71957,1.71957,0,0,1,296.53809,35.29492ZM431.832,176.57812a1.2249,1.2249,0,0,1,1.22363,1.22364v12.97558h-7.11572v-5.15625a12.49666,12.49666,0,0,0-3.86474-9.043Zm-69.65723,0a1.2247,1.2247,0,0,1,1.22266,1.22364v12.97558h-7.4043v-2.69775a14.96463,14.96463,0,0,0-5.37695-11.50147ZM492.5,457.23535H33.17383a3.5,3.5,0,0,0,0,7H492.5v13.42871a14.74759,14.74759,0,0,1-14.73047,14.73047H34.23047A14.74759,14.74759,0,0,1,19.5,477.66406V212.50879a14.7478,14.7478,0,0,1,14.73047-14.73145H477.76953A14.7478,14.7478,0,0,1,492.5,212.50879Z"/><path d="M148.72168,227.50684A103.34473,103.34473,0,1,0,252.06641,330.85156,103.4619,103.4619,0,0,0,148.72168,227.50684Zm0,199.68945a96.34473,96.34473,0,1,1,96.34473-96.34473A96.45341,96.45341,0,0,1,148.72168,427.19629Z"/><path d="M445.59277,248.15918H293.6875a10.38915,10.38915,0,0,0-10.37793,10.377V308.4502a10.38915,10.38915,0,0,0,10.37793,10.377H445.59277a10.38915,10.38915,0,0,0,10.37793-10.377V258.53613A10.38915,10.38915,0,0,0,445.59277,248.15918Zm-75.95215,40.749a3.5005,3.5005,0,0,0-3.5,3.5v19.41895H344.99023V292.4082a3.5,3.5,0,1,0-7,0v19.41895H316.84082V292.4082a3.5,3.5,0,1,0-7,0v19.41895H293.6875a3.3813,3.3813,0,0,1-3.37793-3.377V258.53613a3.3813,3.3813,0,0,1,3.37793-3.377h96.23389v56.668H373.14062V292.4082A3.50049,3.50049,0,0,0,369.64062,288.9082Zm79.33008,19.542a3.38129,3.38129,0,0,1-3.37793,3.377H429.43945V292.4082a3.5,3.5,0,0,0-7,0v19.41895H405.65869v-56.668h39.93408a3.38129,3.38129,0,0,1,3.37793,3.377Z"/><path d="M328.89746,346.2627a33.48584,33.48584,0,1,0,33.48633,33.48535A33.52329,33.52329,0,0,0,328.89746,346.2627Zm0,36.98535h26.248a26.48535,26.48535,0,1,1,0-7h-26.248a3.5,3.5,0,0,0,0,7Z"/><path d="M410.38281,346.2627a33.48584,33.48584,0,1,0,33.48535,33.48535A33.52351,33.52351,0,0,0,410.38281,346.2627Zm0,59.97168a26.4826,26.4826,0,0,1-3.5-52.7334v28.61816a3.5,3.5,0,0,0,7,0V353.501a26.48267,26.48267,0,0,1-3.5,52.7334Z"/></svg>